<svg id="图层_1" data-name="图层 1" xmlns="http://www.w3.org/2000/svg" viewBox="0 0 684.26 741"><defs><style>.cls-1{fill:#fff;}</style></defs><path class="cls-1" d="M617.87,875.5v-741h684.26v741Zm638.25-133.57c-1.68-3.71-2.78-6.49-4.14-9.14-6.38-12.34-13-24.55-19.23-37-23-45.95-44.78-92.56-69.07-137.82-27.77-51.74-67.13-92.23-122-116.2-37.88-16.53-76.88-23.65-117.92-16.72-4,.68-10.49,2.31-11.16,4.78-4,14.47-6.54,29.33-9.85,45.34,5.88-1.41,9.37-2.26,12.85-3.08a166.2,166.2,0,0,1,96.07,5.25c44.08,15.73,77.24,45.51,100.55,85,19.58,33.16,35.41,68.53,52.72,103,5.17,10.29,9.74,20.89,15.27,32.83-12.3,0-23.35.23-34.39,0-43.51-1-87.5,2.38-129.49-13.53a6,6,0,0,0-5.1.92c-12,10.56-23.81,21.34-35.93,32.28.91.53,2,1.27,3.2,1.85a220.86,220.86,0,0,0,95,22.13c57.29.64,114.58.48,171.88.63C1248.61,742.45,1251.82,742.14,1256.12,741.93ZM826.77,477.11a1.79,1.79,0,0,0-1.08.16Q822,480,818.51,483a262.86,262.86,0,0,0-65.4,81.39c-21.23,40.92-41.36,82.41-62,123.63-8.9,17.79-17.89,35.53-27.08,53.78a43.85,43.85,0,0,0,4.57.53c59.23-.15,118.48.58,177.68-.75,50.73-1.14,96-19.27,136.16-50.14,4.32-3.33,8-7.44,12.94-12-9.15-7.2-17.94-13.09-25.44-20.33-6.36-6.14-11-5.35-17.62-.6-29.52,21.1-62.53,34.48-98.64,37-35.16,2.49-70.54,1.89-105.82,2.61-2.09,0-4.19-.28-7-.49.91-2.54,1.4-4.34,2.17-6,7.79-16.9,15.77-33.71,23.41-50.67,16.6-36.81,33.3-73.51,62.59-102.58a7.38,7.38,0,0,0,1.62-5.17C829.46,514.61,828.11,496.08,826.77,477.11ZM850,554.29c13.57-6.4,26.9-12.45,39.92-19.1,1.6-.82,2.67-5.14,2.11-7.35-6-23.4-4.61-47-1.21-70.4,5.4-37.1,21.18-70.67,37.76-103.73,9.27-18.49,20.22-36.13,31.18-55.52,3.36,5.8,5.77,10.06,8.28,14.26,17.5,29.36,35.51,58.56,45.58,91.5,3.17,10.38,8,15.94,18.56,19,10.79,3.19,20.78,9.13,31.1,13.92,2.38,1.11,4.68,2.4,8.17,4.2-.3-2.83-.38-4.16-.58-5.46-4.75-30.24-15.43-58.44-29.55-85.44-12.36-23.62-24.68-47.26-37.19-70.81-14.18-26.7-28.56-53.31-43.27-80.74-1.8,2.79-3.28,4.77-4.42,6.93C929,257.71,900.61,309.31,874.85,362.21c-11.42,23.45-19.16,49.11-25.52,74.52C839.54,475.81,840.84,515.43,850,554.29ZM1155.7,683.63c-27.24-68.56-78-118-152.67-139.81-53.92-15.78-104.39-2.73-151,27.27-41.18,26.5-66.59,65.3-85.53,109.19-.37.85-.17,2-.27,3.53,15.51,0,30.51.2,45.5-.21,2.24-.06,5.47-2.43,6.44-4.56,14.08-31,35.1-56.16,64.16-73.8,40.11-24.34,82.47-30.65,126.7-11.71,40.71,17.42,72.48,44.88,93,84.67,1.18,2.29,4.12,5.13,6.32,5.19C1123.87,683.84,1139.42,683.63,1155.7,683.63Zm-19.4,74.77c-20.48,0-39.65-.41-58.78.22a46.35,46.35,0,0,0-19.5,4.86c-62.67,33.06-125.81,34.45-189.23,2.93-11.53-5.73-22.63-9.08-35.59-8.38-16.2.88-32.48.21-49.65.21C872,858.21,1045.36,859.41,1136.3,758.4ZM878.41,320.22c-65.61,27.3-112.22,72.7-144.62,133.1-27.58,51.41-35.24,106.28-25.9,165.36,8.18-16.09,14.94-31,23.11-45.07,12-20.79,22.11-41.81,28.6-65.46,11.6-42.33,38.08-76.43,71-104.85,11.35-9.81,19-20.35,24.23-34.25C861,352.83,869.83,337.65,878.41,320.22ZM1212.31,613c9.77-65.81-2.41-127.58-39.31-183.93-32.37-49.43-74.91-86.93-130.14-109.57,10.32,23.16,20.22,45.45,30.23,67.7a14,14,0,0,0,3.44,4.48c10.48,9.48,21.69,18.25,31.47,28.4,31.17,32.33,52.88,69.75,59.27,115a15,15,0,0,0,1.71,5.5C1183.28,564.61,1197.67,588.6,1212.31,613ZM876.92,624.49c4.23,6.92,6.93,11.75,10,16.32,3,4.35,6.18,8.54,9.54,12.59,11.84,14.26,11.88,14.22,27.32,5.12,3.35-2,6.75-3.87,10-5.95,5-3.16,9.88-6.46,14.42-9.45-9.2-12-17.43-23.17-26.18-33.88-1.53-1.86-5.9-3.45-7.84-2.6C901.92,612.05,889.91,618.17,876.92,624.49Zm124.47-20.27L973.11,642l37.58,28.09c9.69-12.7,18.56-24.31,27.42-35.94,2.77-3.64,2.14-6.55-1.83-8.91C1024.66,618.27,1013.09,611.27,1001.39,604.22Zm67.13-47.35c1.17-6.81,2.49-13.81,3.48-20.85a5.79,5.79,0,0,0-1.34-4.5c-13.46-11.83-26.52-24.27-43.94-31.68-1.59,12.09-3.1,23.55-4.6,34.86ZM960.3,328.8l-22.68,39.77h46Z" transform="translate(-617.87 -134.5)"/><path d="M1256.12,741.93c-4.3.21-7.51.52-10.72.51-57.3-.15-114.59,0-171.88-.63a220.86,220.86,0,0,1-95-22.13c-1.19-.58-2.29-1.32-3.2-1.85,12.12-10.94,23.94-21.72,35.93-32.28a6,6,0,0,1,5.1-.92c42,15.91,86,12.5,129.49,13.53,11,.26,22.09,0,34.39,0-5.53-11.94-10.1-22.54-15.27-32.83-17.31-34.49-33.14-69.86-52.72-103-23.31-39.47-56.47-69.25-100.55-85a166.2,166.2,0,0,0-96.07-5.25c-3.48.82-7,1.67-12.85,3.08,3.31-16,5.89-30.87,9.85-45.34.67-2.47,7.14-4.1,11.16-4.78,41-6.93,80,.19,117.92,16.72,54.89,24,94.25,64.46,122,116.2,24.29,45.26,46.07,91.87,69.07,137.82,6.22,12.43,12.85,24.64,19.23,37C1253.34,735.44,1254.44,738.22,1256.12,741.93Z" transform="translate(-617.87 -134.5)"/><path d="M826.77,477.11c1.34,19,2.69,37.5,3.86,56a7.38,7.38,0,0,1-1.62,5.17c-29.29,29.07-46,65.77-62.59,102.58-7.64,17-15.62,33.77-23.41,50.67-.77,1.67-1.26,3.47-2.17,6,2.83.21,4.93.53,7,.49,35.28-.72,70.66-.12,105.82-2.61,36.11-2.55,69.12-15.93,98.64-37,6.66-4.75,11.26-5.54,17.62.6,7.5,7.24,16.29,13.13,25.44,20.33-4.91,4.61-8.62,8.72-12.94,12-40.15,30.87-85.43,49-136.16,50.14-59.2,1.33-118.45.6-177.68.75a43.85,43.85,0,0,1-4.57-.53c9.19-18.25,18.18-36,27.08-53.78,20.64-41.22,40.77-82.71,62-123.63A262.86,262.86,0,0,1,818.51,483q3.53-2.93,7.18-5.7A1.79,1.79,0,0,1,826.77,477.11Z" transform="translate(-617.87 -134.5)"/><path d="M850,554.29c-9.14-38.86-10.44-78.48-.65-117.56,6.36-25.41,14.1-51.07,25.52-74.52,25.76-52.9,54.19-104.5,81.57-156.62,1.14-2.16,2.62-4.14,4.42-6.93,14.71,27.43,29.09,54,43.27,80.74,12.51,23.55,24.83,47.19,37.19,70.81,14.12,27,24.8,55.2,29.55,85.44.2,1.3.28,2.63.58,5.46-3.49-1.8-5.79-3.09-8.17-4.2-10.32-4.79-20.31-10.73-31.1-13.92-10.52-3.1-15.39-8.66-18.56-19-10.07-32.94-28.08-62.14-45.58-91.5-2.51-4.2-4.92-8.46-8.28-14.26-11,19.39-21.91,37-31.18,55.52C912,386.77,896.2,420.34,890.8,457.44c-3.4,23.43-4.82,47,1.21,70.4.56,2.21-.51,6.53-2.11,7.35C876.88,541.84,863.55,547.89,850,554.29Z" transform="translate(-617.87 -134.5)"/><path d="M1155.7,683.63c-16.28,0-31.83.21-47.36-.24-2.2-.06-5.14-2.9-6.32-5.19-20.51-39.79-52.28-67.25-93-84.67-44.23-18.94-86.59-12.63-126.7,11.71-29.06,17.64-50.08,42.8-64.16,73.8-1,2.13-4.2,4.5-6.44,4.56-15,.41-30,.21-45.5.21.1-1.58-.1-2.68.27-3.53,18.94-43.89,44.35-82.69,85.53-109.19,46.61-30,97.08-43.05,151-27.27C1077.75,565.68,1128.46,615.07,1155.7,683.63Z" transform="translate(-617.87 -134.5)"/><path d="M1136.3,758.4c-90.94,101-264.33,99.81-352.75-.16,17.17,0,33.45.67,49.65-.21,13-.7,24.06,2.65,35.59,8.38,63.42,31.52,126.56,30.13,189.23-2.93a46.35,46.35,0,0,1,19.5-4.86C1096.65,758,1115.82,758.4,1136.3,758.4Z" transform="translate(-617.87 -134.5)"/><path d="M878.41,320.22c-8.58,17.43-17.44,32.61-23.59,48.83-5.26,13.9-12.88,24.44-24.23,34.25-32.91,28.42-59.39,62.52-71,104.85-6.49,23.65-16.55,44.67-28.6,65.46-8.17,14.08-14.93,29-23.11,45.07-9.34-59.08-1.68-113.95,25.9-165.36C766.19,392.92,812.8,347.52,878.41,320.22Z" transform="translate(-617.87 -134.5)"/><path d="M1212.31,613c-14.64-24.43-29-48.42-43.33-72.46a15,15,0,0,1-1.71-5.5c-6.39-45.21-28.1-82.63-59.27-115-9.78-10.15-21-18.92-31.47-28.4a14,14,0,0,1-3.44-4.48c-10-22.25-19.91-44.54-30.23-67.7,55.23,22.64,97.77,60.14,130.14,109.57C1209.9,485.45,1222.08,547.22,1212.31,613Z" transform="translate(-617.87 -134.5)"/><path d="M876.92,624.49c13-6.32,25-12.44,37.32-17.85,1.94-.85,6.31.74,7.84,2.6,8.75,10.71,17,21.85,26.18,33.88-4.54,3-9.44,6.29-14.42,9.45-3.27,2.08-6.67,4-10,5.95-15.44,9.1-15.48,9.14-27.32-5.12-3.36-4-6.58-8.24-9.54-12.59C883.85,636.24,881.15,631.41,876.92,624.49Z" transform="translate(-617.87 -134.5)"/><path d="M1001.39,604.22c11.7,7,23.27,14,34.89,21,4,2.36,4.6,5.27,1.83,8.91-8.86,11.63-17.73,23.24-27.42,35.94L973.11,642Z" transform="translate(-617.87 -134.5)"/><path d="M1068.52,556.87l-46.4-22.17c1.5-11.31,3-22.77,4.6-34.86,17.42,7.41,30.48,19.85,43.94,31.68A5.79,5.79,0,0,1,1072,536C1071,543.06,1069.69,550.06,1068.52,556.87Z" transform="translate(-617.87 -134.5)"/><path d="M960.3,328.8l23.37,39.77h-46Z" transform="translate(-617.87 -134.5)"/></svg>